<?xml version="1.0" encoding="UTF-8"?>
<svg version="1.1" xmlns="http://www.w3.org/2000/svg" width="512" height="512">
<path d="M0 0 C2.4294516 3.6441774 2.16179575 5.71241272 2 10 C2.721875 10.26296875 3.44375 10.5259375 4.1875 10.796875 C7.94207302 12.4029979 11.13329304 14.65955588 14.5 16.953125 C16.95941969 18.32187727 16.95941969 18.32187727 19.3125 17.109375 C20.199375 16.74328125 21.08625 16.3771875 22 16 C29.0906979 16.0293004 32.98478533 18.50480824 38.5 22.75 C39.27682129 23.33056152 40.05364258 23.91112305 40.85400391 24.50927734 C43.25396309 26.31741234 45.63057874 28.15206871 48 30 C48.72413086 30.56428711 49.44826172 31.12857422 50.19433594 31.70996094 C58.18030428 37.98121881 65.85829092 44.52547695 73.2734375 51.4609375 C75.80645483 53.81976453 78.39285885 56.0989244 81 58.375 C87.0959713 63.85649739 92.56373441 69.87498492 98 76 C98.45487793 76.51014648 98.90975586 77.02029297 99.37841797 77.54589844 C112.8988926 92.81015368 124.51037482 109.54047286 135 127 C135.39493652 127.65468262 135.78987305 128.30936523 136.19677734 128.98388672 C148.08468027 148.88286671 157.47422959 170.10619565 165 192 C165.5249707 193.49805176 165.5249707 193.49805176 166.06054688 195.02636719 C176.22886957 224.38574213 176.22886957 224.38574213 169.25 238.828125 C163.88632388 248.14751226 157.20954762 253.36636573 147 257 C136.97742551 259.12081781 127.73252513 257.5395804 118.97265625 252.31640625 C116.92256105 250.94832292 114.96620599 249.48533344 113 248 C97.557543 257.13209928 82.12715655 266.27975418 66.8125 275.625 C56.03958084 282.19801297 45.18351505 288.61808772 34.28564453 294.98144531 C26.79379408 299.35663271 19.33000868 303.77434555 11.90014648 308.25415039 C6.65105396 311.41624787 1.38843314 314.55471152 -3.8828125 317.6796875 C-4.58425888 318.0956015 -5.28570526 318.5115155 -6.00840759 318.94003296 C-9.50381125 321.0121625 -13.00006957 323.08283516 -16.49731445 325.15185547 C-17.80950946 325.92918997 -19.12160411 326.70669393 -20.43359375 327.484375 C-21.06850235 327.86026764 -21.70341095 328.23616028 -22.3575592 328.6234436 C-25.52292532 330.50375289 -28.67049798 332.40738003 -31.79345703 334.35742188 C-32.3929567 334.73127014 -32.99245636 335.10511841 -33.61012268 335.49029541 C-35.24553442 336.51418888 -36.87693433 337.54448226 -38.50805664 338.57519531 C-41 340 -41 340 -43 340 C-43.04125 340.99 -43.0825 341.98 -43.125 343 C-44.1039764 349.63826463 -48.87597615 354.32775038 -53.9375 358.375 C-59.27323653 362.08988072 -64.22718028 362.9699126 -70.625 363.3125 C-74.40226932 363.61570937 -75.64477021 363.71912063 -78.6875 366.125 C-79.450625 367.07375 -80.21375 368.0225 -81 369 C-87.22313379 375.07655034 -92.41036787 378.98995277 -101.37890625 379.09375 C-109.29945402 379.71480519 -115.13684865 383.51052134 -121.6875 387.625 C-122.96570654 388.40404922 -124.24527511 389.18086763 -125.52612305 389.95556641 C-128.12596579 391.53235708 -130.71799316 393.12085753 -133.30371094 394.72070312 C-137.62034061 397.3891651 -141.97444479 399.99339143 -146.33178711 402.59472656 C-149.35431149 404.39997251 -152.37086226 406.21489005 -155.38671875 408.03125 C-164.42612383 413.46572866 -173.50198015 418.83894984 -182.57543945 424.21630859 C-183.21236221 424.59397369 -183.84928497 424.97163879 -184.50550842 425.36074829 C-185.77175176 426.11140942 -187.03829969 426.86155701 -188.30516052 427.61117554 C-191.56557643 429.54320941 -194.81475226 431.49157102 -198.04980469 433.46582031 C-198.71571625 433.87059601 -199.38162781 434.2753717 -200.06771851 434.69241333 C-201.32547109 435.45797711 -202.58105528 436.22712092 -203.83389282 437.0007019 C-212.90058886 442.50998066 -220.32118761 444.15295354 -231 443 C-238.71568237 440.85905328 -244.74335088 435.72412933 -249 429 C-252.33712189 421.73946698 -252.36972806 414.82248352 -252.21264648 406.95043945 C-252.19976058 405.68467481 -252.18687468 404.41891016 -252.17359829 403.11478901 C-252.14426979 400.42995515 -252.10960803 397.74589748 -252.0650444 395.06134415 C-251.99986943 391.12780662 -251.95678241 387.1942338 -251.91751099 383.26034546 C-251.83952387 375.8287112 -251.7372323 368.39759995 -251.62907338 360.96635985 C-251.5748415 357.21467771 -251.52276005 353.46296549 -251.47032166 349.71125793 C-251.38179527 343.40082737 -251.29163774 337.09042178 -251.20043945 330.7800293 C-251.10852684 324.41905035 -251.01832889 318.05805025 -250.92993164 311.69702148 C-250.88625176 308.55777965 -250.84255668 305.41853803 -250.79882812 302.27929688 C-250.78805953 301.50616787 -250.77729093 300.73303887 -250.76619601 299.93648171 C-250.64848025 291.50702137 -250.52688015 283.07764614 -250.39419556 274.64840698 C-250.38257704 273.90961253 -250.37095852 273.17081807 -250.35898793 272.4096359 C-250.31278781 269.47740895 -250.26650653 266.54518345 -250.2196877 263.6129663 C-250.08135332 254.92685411 -249.96603691 246.24115331 -249.88597584 237.5542593 C-249.84176834 233.01088414 -249.78297332 228.46777722 -249.72082329 223.92461586 C-249.69631463 221.86815744 -249.67863378 219.81160447 -249.66832161 217.75502586 C-249.65390096 214.98628445 -249.61591183 212.21884612 -249.57202148 209.45043945 C-249.57416845 208.65577837 -249.57631542 207.86111729 -249.57852745 207.04237556 C-249.49688504 203.38990742 -249.08411315 201.14263321 -247.21424866 197.97184753 C-245 196 -245 196 -241 196 C-241 189.4 -241 182.8 -241 176 C-242.32 175.67 -243.64 175.34 -245 175 C-246.72772217 173.76426697 -246.72772217 173.76426697 -248 172 C-248.36749268 169.62916565 -248.36749268 169.62916565 -248.35644531 166.77172852 C-248.35940613 165.68767731 -248.36236694 164.6036261 -248.36541748 163.48672485 C-248.35311096 162.29614471 -248.34080444 161.10556458 -248.328125 159.87890625 C-248.32661438 158.62338959 -248.32510376 157.36787292 -248.32354736 156.0743103 C-248.31849763 152.6236887 -248.2941054 149.17344254 -248.26589966 145.72294235 C-248.24469193 142.84124074 -248.23463287 139.95954527 -248.22460938 137.07778645 C-248.10822688 104.38298498 -247.57879163 71.6893975 -247 39 C-247.9242276 38.70900925 -247.9242276 38.70900925 -248.86712646 38.41213989 C-250.08097015 38.02081375 -250.08097015 38.02081375 -251.31933594 37.62158203 C-252.52200104 37.23777878 -252.52200104 37.23777878 -253.7489624 36.84622192 C-261.23011713 34.03386679 -266.62657571 26.94665458 -270.16015625 20.04296875 C-273.46792645 11.99662543 -273.41609636 0.67204643 -270.4375 -7.5 C-265.95139295 -16.94945953 -258.50549141 -23.22353008 -248.93188477 -26.97900391 C-243.76373119 -28.77875561 -238.47060035 -29.92004568 -233.125 -31.0625 C-231.93608154 -31.31999023 -230.74716309 -31.57748047 -229.5222168 -31.84277344 C-219.39390268 -33.99399218 -209.28549407 -35.80600563 -199 -37 C-197.68708984 -37.1544458 -197.68708984 -37.1544458 -196.34765625 -37.31201172 C-133.58733924 -44.35585581 -53.39246737 -36.42850344 0 0 Z " fill="#020201" transform="translate(306,69)"/>
<path d="M0 0 C1.01523218 1.57360988 2.01065764 3.15998549 3 4.75 C7.09732233 10.55453996 11.92861534 14.14251844 18.453125 16.8828125 C21.4752551 18.65667147 22.93323523 20.86494561 23.91796875 24.19921875 C24.08941406 24.99972656 24.26085937 25.80023438 24.4375 26.625 C26.39901136 33.50553468 30.4898583 38.34453983 36.3515625 42.38671875 C43.17326593 45.92160144 50.69915079 46.11945667 58.0625 44.20703125 C65.75239513 41.40342365 70.09136122 36.96416553 74.25 29.9375 C77.37959406 23.20887276 76.68355269 15.57017007 75.6875 8.375 C75.25 4.9375 75.25 4.9375 76.25 2.9375 C82.36771785 3.49555864 87.67013453 4.85565835 93.4375 6.9375 C94.71886841 7.39346558 94.71886841 7.39346558 96.02612305 7.85864258 C102.62196613 10.24998807 109.10875873 12.87488141 115.5625 15.625 C116.85933716 16.17704102 116.85933716 16.17704102 118.18237305 16.74023438 C123.06899458 18.8646444 127.67613612 21.20305776 132.25 23.9375 C131.67415568 26.32314077 131.02772405 28.60432784 130.25 30.9375 C129.82778073 36.4263505 130.53935387 40.12828913 133.25 44.9375 C138.29914602 50.31091155 144.72896668 53.79771914 151.125 57.3125 C152.06730469 57.85777344 153.00960937 58.40304688 153.98046875 58.96484375 C159.74859848 62.14808547 164.61932974 64.37054625 171.25 62.9375 C174.12226656 61.81513617 176.56944476 60.49709578 179.25 58.9375 C192.87101286 72.99790037 204.3721365 88.02933398 214.25 104.9375 C214.62721191 105.57671387 215.00442383 106.21592773 215.39306641 106.87451172 C225.24154817 123.7838469 232.10446262 142.50338874 237.21484375 161.3515625 C238.35942214 165.31655482 239.7595898 169.0904583 241.25 172.9375 C231.04593872 179.46608526 220.67039618 185.69991004 210.25 191.875 C209.22879059 192.48016953 209.22879059 192.48016953 208.18695068 193.0975647 C203.92885713 195.62008797 199.66932253 198.14017141 195.4095459 200.65985107 C189.74641617 204.01032009 184.08557941 207.36465412 178.42611694 210.72131348 C177.06438203 211.52873875 175.70242498 212.3357895 174.34024048 213.14245605 C167.98129078 216.90841626 161.6299904 220.68120272 155.34765625 224.57421875 C154.07607666 225.3621582 154.07607666 225.3621582 152.77880859 226.16601562 C151.27638303 227.10225078 149.77765125 228.04445498 148.28369141 228.99414062 C143.57407788 231.9375 143.57407788 231.9375 140.25 231.9375 C138.99609375 230.36328125 138.99609375 230.36328125 137.6875 228.25 C133.58810483 222.44080684 127.83540438 220.13263479 121.25 217.9375 C119.4800313 217.83747037 117.70896509 217.75610446 115.9375 217.6875 C110.26371995 217.2321045 108.29248324 215.79196076 104.25 211.9375 C96.83465095 208.85399514 87.87116888 208.29441773 80.26171875 211 C73.40303177 214.83004068 68.82437098 219.96408753 65.9375 227.25 C65.3477941 230.41296803 65.07639306 233.36163585 64.875 236.5625 C64.51374151 241.29111555 63.61594378 243.47255788 60.25 246.9375 C56.20328963 253.68201728 56.47842314 260.27918921 57.25 267.9375 C58.2680438 271.00538874 59.52297579 273.16379445 61.25 275.9375 C61.62664106 277.25925278 61.97144827 278.59165535 62.25 279.9375 C48.15395356 288.56017703 34.02635599 297.11628472 19.75 305.4375 C7.52521537 312.56377656 -4.58938173 319.85950742 -16.66796875 327.23046875 C-17.69615723 327.85566406 -18.7243457 328.48085938 -19.78369141 329.125 C-21.7352399 330.31745235 -23.68046455 331.52032715 -25.61865234 332.734375 C-26.93857178 333.55228516 -26.93857178 333.55228516 -28.28515625 334.38671875 C-29.04836182 334.86584717 -29.81156738 335.34497559 -30.59790039 335.83862305 C-34.30268224 337.7303103 -36.64595996 337.62150667 -40.75 336.9375 C-45.23174751 334.65434561 -47.55155137 332.42153663 -49.75 327.9375 C-50.11749268 324.89077759 -50.11749268 324.89077759 -50.10644531 321.42822266 C-50.11088654 319.4558815 -50.11088654 319.4558815 -50.11541748 317.44369507 C-50.10334781 315.99631449 -50.09090501 314.54893698 -50.078125 313.1015625 C-50.07538993 311.57825893 -50.07389397 310.05495271 -50.07354736 308.53164673 C-50.06851107 304.40509851 -50.04412953 300.27886649 -50.01589966 296.15242004 C-49.99454147 292.67335198 -49.98460669 289.19428817 -49.97460938 285.71517181 C-49.90105572 260.76819917 -49.5902489 235.8250689 -49.17935181 210.88162231 C-48.60901474 176.23397913 -48.64833719 141.58884117 -48.75 106.9375 C-50.73 106.2775 -52.71 105.6175 -54.75 104.9375 C-54.75 98.3375 -54.75 91.7375 -54.75 84.9375 C-52.77 83.9475 -50.79 82.9575 -48.75 81.9375 C-47.27692138 78.99134276 -47.53763617 76.29778336 -47.45288086 73.00927734 C-47.43322769 72.29697464 -47.41357452 71.58467194 -47.39332581 70.8507843 C-47.32935463 68.49176389 -47.27208018 66.13263014 -47.21484375 63.7734375 C-47.17184377 62.13960704 -47.12842725 60.5057875 -47.08460999 58.87197876 C-46.97030838 54.56813409 -46.86167996 50.26416404 -46.75421143 45.96014404 C-46.64358735 41.56969424 -46.52762741 37.17938578 -46.41210938 32.7890625 C-46.18616818 24.17200471 -45.96621697 15.55480724 -45.75 6.9375 C-44.58702896 6.7340799 -43.42405792 6.53065979 -42.22584534 6.32107544 C-40.68253883 6.0501913 -39.13923987 5.77926414 -37.59594727 5.50830078 C-36.44928463 5.30790947 -36.44928463 5.30790947 -35.27945709 5.10346985 C-28.94213379 3.98937201 -22.6587751 2.69202162 -16.37695312 1.30078125 C-2.73225786 -1.65887084 -2.73225786 -1.65887084 0 0 Z " fill="#FDD294" transform="translate(119.75,160.0625)"/>
<path d="M0 0 C3.07810593 -0.00217278 6.15584451 -0.02034287 9.23388672 -0.03930664 C21.98174636 -0.07602297 34.46559652 0.58198428 47.11279297 2.18530273 C48.27230469 2.33136963 49.43181641 2.47743652 50.62646484 2.62792969 C86.28084892 7.4767214 121.39243608 18.42166097 153.23706055 35.31201172 C156.71513922 36.93131243 159.5685307 36.36672349 163.11279297 35.18530273 C163.44279297 34.19530273 163.77279297 33.20530273 164.11279297 32.18530273 C166.84119908 33.64174728 169.559189 35.11321099 172.26513672 36.61108398 C173.88933137 37.5089584 175.52241843 38.39205132 177.17919922 39.22827148 C178.80029297 40.12280273 178.80029297 40.12280273 181.11279297 42.18530273 C181.23779297 45.62280273 181.23779297 45.62280273 181.11279297 49.18530273 C184.04323049 53.77433815 187.89333651 56.28911221 192.36279297 59.18530273 C209.78677656 70.8333359 224.9467581 84.96998234 239.80029297 99.68530273 C241.11936646 100.98467773 241.11936646 100.98467773 242.46508789 102.31030273 C248.44920143 108.28710279 253.88634683 114.53867306 259.11279297 121.18530273 C259.73951904 121.97839844 260.36624512 122.77149414 261.01196289 123.58862305 C276.06114599 142.83952015 288.27497716 163.31247652 299.11279297 185.18530273 C299.50917969 185.97066406 299.90556641 186.75602539 300.31396484 187.56518555 C306.16076579 199.25372088 310.46648787 211.46103527 314.67529297 223.81030273 C314.94744629 224.59529144 315.21959961 225.38028015 315.5 226.1890564 C322.36998278 246.11831543 322.36998278 246.11831543 319.07568359 253.51342773 C316.02217675 258.94649254 311.85265426 262.72238043 306.11279297 265.18530273 C299.31605948 266.16439667 294.59585489 265.27072142 289.11279297 261.18530273 C285.12742328 256.96190943 283.31649473 253.74600308 281.73779297 248.06030273 C281.31872362 246.62979033 280.89670943 245.2001382 280.47216797 243.77124023 C280.14249023 242.64733887 280.14249023 242.64733887 279.80615234 241.50073242 C264.43581175 190.1724542 233.05519068 139.8822068 190.82373047 106.34545898 C189.09509238 104.96802834 187.3888907 103.56161495 185.71435547 102.11889648 C171.9290926 90.31227545 156.15370692 80.61253494 140.11279297 72.18530273 C139.47599609 71.84837402 138.83919922 71.51144531 138.18310547 71.16430664 C104.37697809 53.4042101 69.71166004 44.30709686 32.11279297 39.18530273 C31.32291992 39.06896484 30.53304687 38.95262695 29.71923828 38.83276367 C21.94885161 37.79497627 14.06355054 37.94128759 6.23779297 37.93530273 C5.04627625 37.93429062 5.04627625 37.93429062 3.83068848 37.93325806 C-20.73909168 37.96619755 -44.50718755 41.20660296 -68.31298828 47.31030273 C-74.33839991 48.78537618 -78.66047303 49.22299053 -84.13720703 45.99780273 C-88.63208233 42.87783047 -91.71573022 39.21543257 -93.88720703 34.18530273 C-94.91182655 27.84344717 -94.05670806 23.08245221 -90.30126953 17.86889648 C-83.93487628 10.28901943 -74.45834392 8.65271389 -65.19970703 6.68530273 C-64.20092529 6.47099609 -63.20214355 6.25668945 -62.1730957 6.03588867 C-52.14922537 3.94123072 -42.0625953 2.33567641 -31.88720703 1.18530273 C-31.07171387 1.08886475 -30.2562207 0.99242676 -29.41601562 0.89306641 C-19.63750381 -0.09820176 -9.81784661 -0.00077269 0 0 Z " fill="#FABF6C" transform="translate(142.88720703125,45.814697265625)"/>
<path d="M0 0 C0.86061035 0.13921875 1.7212207 0.2784375 2.60791016 0.421875 C73.18041501 12.30545407 138.27755329 51.81444516 180.35791016 109.87353516 C183.37008795 114.16603141 186.21033901 118.56051518 189 123 C189.39364746 123.6197168 189.78729492 124.23943359 190.19287109 124.87792969 C200.51977253 141.27426154 209.29384384 159.03423638 216.0625 177.1875 C216.31281982 177.85507324 216.56313965 178.52264648 216.82104492 179.21044922 C219.44648265 186.63707205 221.15000845 194.35247085 223 202 C222.05680908 202.55985596 221.11361816 203.11971191 220.1418457 203.6965332 C216.62875442 205.78186376 213.11575521 207.86734938 209.6027832 209.95288086 C208.08490452 210.85396458 206.56700117 211.75500675 205.04907227 212.65600586 C202.86207634 213.95415388 200.67517038 215.25245334 198.48828125 216.55078125 C197.81412674 216.9508992 197.13997223 217.35101715 196.44538879 217.76325989 C195.80510239 218.14342758 195.16481598 218.52359528 194.50512695 218.9152832 C193.90326569 219.27135651 193.30140442 219.62742981 192.68130493 219.99429321 C191.16170257 220.90327431 189.65826473 221.83914624 188.15698242 222.77807617 C186 224 186 224 184 224 C183.33333333 222 182.66666667 220 182 218 C181.77707275 217.33919434 181.55414551 216.67838867 181.32446289 215.99755859 C179.93317321 211.85967522 178.59506227 207.71080253 177.30859375 203.5390625 C166.50412762 169.05444652 148.55172572 138.21598473 123.62915039 112.05810547 C118.62629043 106.73807963 118.62629043 106.73807963 118 104 C119.02129263 101.62892881 120.07688395 99.58308314 121.375 97.375 C124.54204162 91.53002928 126.50578044 86.66492982 125 80 C120.42794333 69.66317622 105.55638102 64.10031571 96 59 C90.77355359 57.2578512 85.27899996 56.99652853 80.25 59.5 C76.26201566 62.06569622 74.1683405 65.88315076 72 70 C67.74939595 69.50692993 64.51180162 67.83847077 60.76733398 65.91381836 C50.30357658 60.55661001 39.58154456 56.58851226 28.4375 52.9375 C27.70204956 52.69630432 26.96659912 52.45510864 26.2088623 52.206604 C18.49086255 49.58054483 18.49086255 49.58054483 10.62719727 47.48364258 C10.09022217 47.32404053 9.55324707 47.16443848 9 47 C8.09375 45.109375 8.09375 45.109375 7.5 42.75 C6.33817253 38.71248908 4.79889996 36.18495513 2 33 C2 32.34 2 31.68 2 31 C1.42121094 30.71382812 0.84242188 30.42765625 0.24609375 30.1328125 C-1.15188849 29.4277432 -2.53777591 28.69743203 -3.90234375 27.9296875 C-11.57798867 23.95190606 -19.43092654 24.17606872 -27.8125 25.6875 C-31.03570799 26.00350078 -31.9142914 25.78350933 -34.75 24.5625 C-40.96189067 22.00606807 -46.7918013 21.91738165 -53.16015625 24.06640625 C-59.76386388 27.06957936 -64.65276375 30.45001252 -68 37 C-68.70239618 38.9877334 -69.37639536 40.98615748 -70 43 C-71.23492187 43.24234375 -72.46984375 43.4846875 -73.7421875 43.734375 C-75.45322074 44.07243245 -77.16415049 44.41101395 -78.875 44.75 C-80.22102295 45.01635254 -80.22102295 45.01635254 -81.59423828 45.28808594 C-88.45472607 46.65897884 -95.28217991 48.14821016 -102.08544922 49.78027344 C-106.29197894 50.75516048 -109.58278209 51 -114 51 C-114 36.48 -114 21.96 -114 7 C-98.23367095 2.49533456 -98.23367095 2.49533456 -92.30859375 1.55078125 C-91.01373047 1.34259766 -89.71886719 1.13441406 -88.38476562 0.91992188 C-87.08216797 0.71947266 -85.77957031 0.51902344 -84.4375 0.3125 C-83.11773233 0.09896273 -81.79807037 -0.11522901 -80.47851562 -0.33007812 C-53.83759903 -4.5379359 -26.60528655 -4.31864718 0 0 Z " fill="#FA7B69" transform="translate(189,101)"/>
<path d="M0 0 C8.92328049 7.17198245 15.29697198 15.99789579 18.6875 26.9375 C19.1 28.175 19.5125 29.4125 19.9375 30.6875 C22.92165072 44.34888723 19.60237147 57.23029809 13 69.25 C7.22840474 78.09879783 -1.06389889 86.58699579 -11.3125 89.9375 C-16.65822334 89.65159689 -16.65822334 89.65159689 -18.71972656 87.40161133 C-20.79980798 85.48955611 -21.87030163 85.59889264 -24.65625 85.6796875 C-25.49027344 85.69386719 -26.32429688 85.70804687 -27.18359375 85.72265625 C-28.48490234 85.76712891 -28.48490234 85.76712891 -29.8125 85.8125 C-31.53114561 85.85591304 -33.24990309 85.89515116 -34.96875 85.9296875 C-35.72994141 85.95401855 -36.49113281 85.97834961 -37.27539062 86.00341797 C-39.3125 85.9375 -39.3125 85.9375 -42.3125 84.9375 C-42.5909375 85.8965625 -42.5909375 85.8965625 -42.875 86.875 C-44.3125 88.9375 -44.3125 88.9375 -47.3125 90.0625 C-54.70496708 90.67471259 -61.227604 84.19708173 -66.5 79.75 C-77.00863547 69.8682533 -82.2341806 57.8968545 -82.83398438 43.55200195 C-83.05347269 29.56092817 -79.20309809 18.83504744 -70.3125 7.9375 C-69.76335937 7.24011719 -69.21421875 6.54273438 -68.6484375 5.82421875 C-51.52938735 -13.5949681 -20.27665108 -14.01024886 0 0 Z " fill="#F94958" transform="translate(298.3125,255.0625)"/>
<path d="M0 0 C2.015625 1.10546875 2.015625 1.10546875 3.875 2.3125 C4.52984375 2.72113281 5.1846875 3.12976563 5.859375 3.55078125 C9.1630616 5.75551425 11.72978403 7.90539229 13.875 11.3125 C16.6895761 10.80075889 19.2849511 10.17311662 22 9.25 C31.3822907 6.98009096 40.91592297 7.75441032 49.2890625 12.75390625 C56.78298476 18.1550442 62.46934446 25.62242512 64.39453125 34.78515625 C65.51981381 44.73265407 63.82903332 54.02696044 57.7265625 62.15380859 C51.86435256 68.9884157 43.58709249 73.51074604 35.9375 78.0625 C33.91258009 79.27964796 31.88784291 80.49709998 29.86328125 81.71484375 C28.86119629 82.31538574 27.85911133 82.91592773 26.82666016 83.53466797 C24.03427154 85.21656821 21.25464047 86.91716132 18.48046875 88.62890625 C17.65732178 89.13647461 16.8341748 89.64404297 15.98608398 90.16699219 C14.44668062 91.11759883 12.90837632 92.06998829 11.37133789 93.02441406 C5.80740224 96.44777002 1.45723867 98.15727929 -5.125 97.3125 C-12.90677673 94.72326507 -16.44705248 89.61600106 -20.62890625 82.76953125 C-21.2822998 81.70387939 -21.93569336 80.63822754 -22.60888672 79.5402832 C-23.63780029 77.84971802 -23.63780029 77.84971802 -24.6875 76.125 C-25.40099824 74.95584745 -26.11470432 73.78682172 -26.82861328 72.61791992 C-27.90377599 70.85741183 -28.97864994 69.09673484 -30.05206299 67.3351593 C-32.19425318 63.82257101 -34.36085299 60.32674767 -36.55078125 56.84375 C-37.30669556 55.63368286 -37.30669556 55.63368286 -38.07788086 54.39916992 C-38.9954909 52.9317815 -39.91906299 51.46809659 -40.84985352 50.0090332 C-46.39626161 41.08197818 -47.64895071 31.64289581 -45.5078125 21.34375 C-42.57066145 12.09042456 -37.02872094 5.64717773 -28.6875 0.75 C-20.04106987 -3.18917312 -8.85467505 -3.67809579 0 0 Z " fill="#010000" transform="translate(401.125,1.6875)"/>
<path d="M0 0 C0.86061035 0.13921875 1.7212207 0.2784375 2.60791016 0.421875 C73.18041501 12.30545407 138.27755329 51.81444516 180.35791016 109.87353516 C183.37008795 114.16603141 186.21033901 118.56051518 189 123 C189.39364746 123.6197168 189.78729492 124.23943359 190.19287109 124.87792969 C200.51977253 141.27426154 209.29384384 159.03423638 216.0625 177.1875 C216.31281982 177.85507324 216.56313965 178.52264648 216.82104492 179.21044922 C219.44648265 186.63707205 221.15000845 194.35247085 223 202 C222.05680908 202.55985596 221.11361816 203.11971191 220.1418457 203.6965332 C216.62875442 205.78186376 213.11575521 207.86734938 209.6027832 209.95288086 C208.08490452 210.85396458 206.56700117 211.75500675 205.04907227 212.65600586 C202.86207634 213.95415388 200.67517038 215.25245334 198.48828125 216.55078125 C197.81412674 216.9508992 197.13997223 217.35101715 196.44538879 217.76325989 C195.80510239 218.14342758 195.16481598 218.52359528 194.50512695 218.9152832 C193.90326569 219.27135651 193.30140442 219.62742981 192.68130493 219.99429321 C191.16170257 220.90327431 189.65826473 221.83914624 188.15698242 222.77807617 C186 224 186 224 184 224 C181.0624369 215.39630728 178.25396835 206.814299 176 198 C176.845625 197.67 177.69125 197.34 178.5625 197 C185.81365237 192.78114771 189.81500315 186.77975203 192.33984375 178.85546875 C196.18636966 162.21753717 186.22753384 147.72515737 178 134 C168.52096242 118.87107409 157.36838324 104.85571416 145 92 C144.40026367 91.37303223 143.80052734 90.74606445 143.18261719 90.10009766 C134.33939433 80.90305688 125.29229893 72.53701075 115 65 C114.37609375 64.53174805 113.7521875 64.06349609 113.109375 63.58105469 C95.23611841 50.18504887 75.66374759 39.43887292 55 31 C54.16774902 30.65630371 53.33549805 30.31260742 52.47802734 29.95849609 C36.45985226 23.44796184 19.92118842 19.39038483 3 16 C2.0414209 15.8050293 1.0828418 15.61005859 0.09521484 15.40917969 C-35.55839428 8.52715807 -73.98055522 12.30928048 -108.74536133 21.49682617 C-111 22 -111 22 -114 22 C-114 17.05 -114 12.1 -114 7 C-104.18224572 4.01586082 -94.59822912 1.87607583 -84.4375 0.3125 C-83.11773233 0.09896273 -81.79807037 -0.11522901 -80.47851562 -0.33007812 C-53.83759903 -4.5379359 -26.60528655 -4.31864718 0 0 Z " fill="#F96B59" transform="translate(189,101)"/>
<path d="M0 0 C11.16278212 4.31818698 25.41838118 10.83676235 31 22 C32.17573432 29.591533 29.61354787 34.71347638 25.8125 41.125 C25.32974609 41.97964844 24.84699219 42.83429688 24.34960938 43.71484375 C21.49606876 48.70183688 18.36752365 53.34807397 15 58 C15.93271729 57.44538086 16.86543457 56.89076172 17.82641602 56.31933594 C21.31303926 54.24630841 24.80012857 52.17406595 28.28735352 50.10205078 C29.79171102 49.20805659 31.29594491 48.31385436 32.80004883 47.41943359 C34.9718367 46.12802244 37.14407964 44.83737967 39.31640625 43.546875 C39.98023819 43.15191833 40.64407013 42.75696167 41.32801819 42.35003662 C45.52788987 39.85628538 49.75319753 37.41301057 54 35 C54.02578125 35.99 54.0515625 36.98 54.078125 38 C54.36898535 45.55758514 55.01561655 51.40086491 59 58 C59.37447585 59.32236785 59.71863842 60.65473997 60 62 C45.90395356 70.62267703 31.77635599 79.17878472 17.5 87.5 C5.27521537 94.62627656 -6.83938173 101.92200742 -18.91796875 109.29296875 C-20.46025146 110.23076172 -20.46025146 110.23076172 -22.03369141 111.1875 C-23.9852399 112.37995235 -25.93046455 113.58282715 -27.86865234 114.796875 C-28.74859863 115.34214844 -29.62854492 115.88742187 -30.53515625 116.44921875 C-31.29836182 116.92834717 -32.06156738 117.40747559 -32.84790039 117.90112305 C-36.55268224 119.7928103 -38.89595996 119.68400667 -43 119 C-47.46533748 116.72520543 -49.90529613 114.53040605 -52 110 C-52.35011191 107.05018998 -52.28442849 104.15251772 -52.1875 101.1875 C-52.17396484 100.39923828 -52.16042969 99.61097656 -52.14648438 98.79882812 C-52.11133456 96.86558831 -52.05753361 94.93270318 -52 93 C-51.44094971 92.97421875 -50.88189941 92.9484375 -50.3059082 92.921875 C-44.36802553 92.48152217 -40.26444719 91.03123076 -35.1875 88 C-34.45265381 87.5771875 -33.71780762 87.154375 -32.96069336 86.71875 C-30.29254469 85.1693462 -27.64532298 83.5880741 -25 82 C-24.43776733 81.66307129 -23.87553467 81.32614258 -23.29626465 80.97900391 C-8.5017745 72.22153094 -8.5017745 72.22153094 6 63 C5.21302734 62.84917969 5.21302734 62.84917969 4.41015625 62.6953125 C-1.88181333 61.16681407 -7.14615712 58.43917615 -12.6875 55.1875 C-13.39962646 54.77322754 -14.11175293 54.35895508 -14.84545898 53.93212891 C-22.10858542 49.56767856 -28.47941281 45.45138056 -31 37 C-31.7378493 30.43233041 -29.6003015 26.53811931 -26.375 21.0625 C-25.94832031 20.30259766 -25.52164063 19.54269531 -25.08203125 18.75976562 C-12.68034235 -2.91542497 -12.68034235 -2.91542497 0 0 Z " fill="#FABF6C" transform="translate(122,378)"/>
<path d="M0 0 C7.94960776 2.36804614 15.1457287 5.86599154 22.53515625 9.59179688 C23.42589844 10.02943359 24.31664062 10.46707031 25.234375 10.91796875 C26.03069336 11.31781982 26.82701172 11.7176709 27.64746094 12.12963867 C31.45841625 13.53956558 34.18319125 13.27226958 38 12 C38.33 11.01 38.66 10.02 39 9 C41.72840611 10.45644454 44.44639603 11.92790825 47.15234375 13.42578125 C48.77653841 14.32365566 50.40962547 15.20674858 52.06640625 16.04296875 C53.6875 16.9375 53.6875 16.9375 56 19 C56.125 22.4375 56.125 22.4375 56 26 C58.93043752 30.58903541 62.78054354 33.10380948 67.25 36 C84.67398359 47.64803317 99.83396513 61.7846796 114.6875 76.5 C115.56688232 77.36625 116.44626465 78.2325 117.35229492 79.125 C123.33640846 85.10180006 128.77355386 91.35337033 134 98 C134.62672607 98.7930957 135.25345215 99.58619141 135.89916992 100.40332031 C150.94835302 119.65421741 163.1621842 140.12717378 174 162 C174.59458008 163.17804199 174.59458008 163.17804199 175.20117188 164.37988281 C181.04797282 176.06841815 185.3536949 188.27573253 189.5625 200.625 C189.83465332 201.40998871 190.10680664 202.19497742 190.38720703 203.00375366 C197.25718982 222.93301269 197.25718982 222.93301269 193.96289062 230.328125 C190.90938378 235.7611898 186.73986129 239.5370777 181 242 C174.20326652 242.97909394 169.48306192 242.08541868 164 238 C162.1555318 236.08062954 160.60297561 234.13730081 159 232 C159.61875 231.319375 160.2375 230.63875 160.875 229.9375 C164.90240345 224.370207 165.36130634 218.69678931 165 212 C159.88734367 181.18105067 144.92646982 150.56835756 129 124 C128.54302734 123.23429687 128.08605469 122.46859375 127.61523438 121.6796875 C117.5464482 104.9483351 105.81778246 89.70275046 93 75 C92.31164062 74.19949219 91.62328125 73.39898437 90.9140625 72.57421875 C80.25478037 60.42427072 68.76419478 48.92167197 56 39 C54.94375805 38.12322153 53.89054623 37.24278422 52.83984375 36.359375 C37.66917098 23.71750608 18.94871432 8.31623811 0 2 C0 1.34 0 0.68 0 0 Z " fill="#F9B24C" transform="translate(268,69)"/>
<path d="M0 0 C5.90768094 4.19286751 9.91898076 9.31968984 13.578125 15.52734375 C14.12146484 16.42839844 14.12146484 16.42839844 14.67578125 17.34765625 C18.62283236 25.53549251 17.80181857 37.96691981 15.078125 46.46484375 C10.42190416 57.21499573 2.32021219 64.91095084 -8.421875 69.40234375 C-17.56698881 72.08641054 -29.52489572 72.10285754 -38.15234375 67.9140625 C-48.62708242 61.51383491 -56.07715866 53.48943397 -59.421875 41.52734375 C-59.83579269 38.55463172 -59.90016721 35.65073185 -59.859375 32.65234375 C-59.85107666 31.862229 -59.84277832 31.07211426 -59.83422852 30.25805664 C-59.53352241 19.84677654 -55.69357023 11.99295085 -48.421875 4.52734375 C-45.2550026 1.86675764 -41.98297293 -0.37354262 -38.421875 -2.47265625 C-37.82117188 -2.83488281 -37.22046875 -3.19710938 -36.6015625 -3.5703125 C-25.53457656 -8.90529451 -10.02222961 -6.0941622 0 0 Z " fill="#040202" transform="translate(177.421875,278.47265625)"/>
<path d="M0 0 C8.92328049 7.17198245 15.29697198 15.99789579 18.6875 26.9375 C19.1 28.175 19.5125 29.4125 19.9375 30.6875 C22.92165072 44.34888723 19.60237147 57.23029809 13 69.25 C7.22840474 78.09879783 -1.06389889 86.58699579 -11.3125 89.9375 C-14.32786201 89.66604405 -16.55065035 89.3692148 -19.1875 87.875 C-20.67720365 85.30939927 -21.09217892 82.93820253 -20.984375 79.984375 C-19.81717806 76.42849595 -16.93702991 75.23930912 -13.828125 73.42578125 C-4.42730959 67.86411872 1.3834129 60.08044806 4.1796875 49.5703125 C6.05989191 39.8221758 4.44817861 31.20168512 -0.66796875 22.6796875 C-5.7795729 15.47136637 -12.52504853 9.01966722 -21.3125 6.9375 C-33.50500612 5.65951521 -44.64893228 6.28795528 -54.46484375 14.2109375 C-57.60376062 17.14413254 -60.03122417 20.30635681 -62.3125 23.9375 C-62.72757813 24.56914062 -63.14265625 25.20078125 -63.5703125 25.8515625 C-68.05409383 33.97253708 -67.68733147 44.66633763 -65.39453125 53.45703125 C-61.44387787 63.62133363 -56.08105214 68.86566 -46.80078125 74.359375 C-44.60505256 75.75195646 -42.94486015 76.92762333 -41.3125 78.9375 C-40.60708083 82.9936602 -40.99129423 84.48002512 -43.375 87.875 C-46.3125 89.9375 -46.3125 89.9375 -49.4375 90.1875 C-60.25389749 87.66603043 -69.70764121 78.27319883 -75.5625 69.25 C-82.72801379 56.30900379 -84.7685261 41.56578992 -81.4296875 27.1171875 C-78.87596006 19.96336823 -75.10070666 13.80658876 -70.3125 7.9375 C-69.76335937 7.24011719 -69.21421875 6.54273438 -68.6484375 5.82421875 C-51.52938735 -13.5949681 -20.27665108 -14.01024886 0 0 Z " fill="#040202" transform="translate(298.3125,255.0625)"/>
<path d="M0 0 C5.06125667 3.52087421 8.88766574 8.12535161 11.875 13.5 C13.68499909 16.28342125 13.68499909 16.28342125 16.9375 16.75 C20.5496335 16.47273602 23.05590353 14.83883098 26.125 13 C31.82607067 9.69525849 36.37601428 8.8459745 42.875 10 C48.14331333 11.61031464 51.33233401 14.9793877 53.98828125 19.7265625 C55.88841148 24.59826202 55.75088793 29.13200111 54.234375 34.09765625 C50.95413762 40.6451142 44.45374059 43.89256109 38.38671875 47.49658203 C35.33468666 49.32341073 32.30723049 51.18908786 29.28125 53.05859375 C23.65496815 56.53363153 18.02040356 59.99472353 12.38012695 63.44702148 C10.52384331 64.597769 8.69222695 65.78851537 6.875 67 C5.555 67 4.235 67 2.875 67 C1.32617188 65.19018555 1.32617188 65.19018555 -0.15625 62.63671875 C-0.7140918 61.69562256 -1.27193359 60.75452637 -1.84667969 59.78491211 C-2.43352539 58.76276611 -3.02037109 57.74062012 -3.625 56.6875 C-4.86808205 54.57711705 -6.11290358 52.46775784 -7.359375 50.359375 C-7.98521484 49.29396484 -8.61105469 48.22855469 -9.25585938 47.13085938 C-12.49510842 41.70503261 -15.93320918 36.40547853 -19.39257812 31.11791992 C-23.34068636 24.97679955 -26.02983291 19.49718697 -25.125 12 C-22.828174 6.9412882 -19.79879406 3.07486452 -15.125 0 C-10.03212735 -1.69762422 -5.10928733 -1.63497195 0 0 Z " fill="#F98E83" transform="translate(395.125,16)"/>
<path d="M0 0 C1.40756043 2.69135848 2.5253092 5.33830829 3.47265625 8.22265625 C3.73240234 9.00833984 3.99214844 9.79402344 4.25976562 10.60351562 C4.52466797 11.41498047 4.78957031 12.22644531 5.0625 13.0625 C5.33126953 13.87783203 5.60003906 14.69316406 5.87695312 15.53320312 C6.37515481 17.04520176 6.87212029 18.55760871 7.36743164 20.07055664 C7.90667255 21.71533506 8.4526357 23.35790709 9 25 C-1.20406128 31.52858526 -11.57960382 37.76241004 -22 43.9375 C-22.68080627 44.34094635 -23.36161255 44.7443927 -24.06304932 45.1600647 C-28.32114287 47.68258797 -32.58067747 50.20267141 -36.8404541 52.72235107 C-42.50358383 56.07282009 -48.16442059 59.42715412 -53.82388306 62.78381348 C-55.18561797 63.59123875 -56.54757502 64.3982895 -57.90975952 65.20495605 C-64.26870922 68.97091626 -70.6200096 72.74370272 -76.90234375 76.63671875 C-77.75006348 77.16201172 -78.5977832 77.68730469 -79.47119141 78.22851562 C-80.97361697 79.16475078 -82.47234875 80.10695498 -83.96630859 81.05664062 C-88.67592212 84 -88.67592212 84 -92 84 C-93.25390625 82.42578125 -93.25390625 82.42578125 -94.5625 80.3125 C-99.21516215 73.75700346 -106.46717151 71.18055561 -114 69 C-111.26389734 65.84591611 -107.79617295 63.94521248 -104.234375 61.8671875 C-103.56392151 61.47105255 -102.89346802 61.0749176 -102.20269775 60.66677856 C-100.05428413 59.39857845 -97.9022845 58.1366174 -95.75 56.875 C-94.34870548 56.04990845 -92.94766141 55.22439139 -91.546875 54.3984375 C-89.44525002 53.15925346 -87.34347705 51.92033257 -85.24075317 50.68301392 C-79.99662642 47.59550918 -74.77389552 44.47374475 -69.55886841 41.33740234 C-63.2605822 37.55101977 -56.93984497 33.80286731 -50.6178894 30.05618286 C-38.68222448 22.98193036 -26.76406255 15.87985917 -14.87939453 8.72021484 C-9.95107938 5.7544508 -5.00899859 2.82754844 0 0 Z " fill="#FABF6C" transform="translate(352,308)"/>
<path d="M0 0 C2.76043172 1.45448643 5.42261909 3.01151779 8.08447266 4.63916016 C8.99519531 5.16960937 9.90591797 5.70005859 10.84423828 6.24658203 C24.69417729 14.44389524 24.69417729 14.44389524 27.39697266 21.95166016 C27.94152956 27.92000385 26.57508831 31.58933391 23.83447266 36.70166016 C23.47240723 37.39614258 23.1103418 38.090625 22.73730469 38.80615234 C12.66318244 57.86292356 12.66318244 57.86292356 3.39697266 60.95166016 C-3.86039447 62.0100262 -8.50650793 58.56526126 -14.60302734 54.95166016 C-15.82711875 54.27917369 -17.05379289 53.61137176 -18.28271484 52.94775391 C-19.53543811 52.26177345 -20.78804376 51.57557814 -22.04052734 50.88916016 C-23.19423828 50.25880859 -24.34794922 49.62845703 -25.53662109 48.97900391 C-30.15576038 45.92507615 -33.07741851 42.29129108 -34.60302734 36.95166016 C-35.79843965 29.62975978 -32.0828888 24.12251617 -28.60302734 17.95166016 C-28.28205078 17.3797998 -27.96107422 16.80793945 -27.63037109 16.21875 C-21.507134 5.42804541 -13.94567441 -5.61646276 0 0 Z " fill="#040302" transform="translate(125.60302734375,201.04833984375)"/>
<path d="M0 0 C11.16278212 4.31818698 25.41838118 10.83676235 31 22 C32.14730235 29.53520546 29.67881188 34.67048088 25.9375 41.0625 C25.47150391 41.90876953 25.00550781 42.75503906 24.52539062 43.62695312 C20.96538884 49.9090243 16.84125116 56.57394663 10.625 60.5 C1.25787545 62.2842142 -3.95541942 59.91313311 -12 55 C-13.05316406 54.42378906 -14.10632813 53.84757812 -15.19140625 53.25390625 C-22.00814415 49.49842733 -26.57877949 46.49655238 -30.3125 39.5625 C-32.02000154 33.19817607 -30.86383221 28.92979366 -27.73828125 23.37695312 C-27.28839844 22.61318359 -26.83851562 21.84941406 -26.375 21.0625 C-25.94832031 20.30259766 -25.52164063 19.54269531 -25.08203125 18.75976562 C-12.68034235 -2.91542497 -12.68034235 -2.91542497 0 0 Z " fill="#030202" transform="translate(122,378)"/>
<path d="M0 0 C1.9921875 1.1171875 1.9921875 1.1171875 4 2.5 C7.80739006 5.09226557 10.32391748 5.70582378 15 5 C15.825 4.505 16.65 4.01 17.5 3.5 C20.87878636 1.47272818 23.118656 1.58414171 27 2 C31.09206332 3.808121 33.69807584 6.16345973 36 10 C36.94064464 16.47999638 36.94064464 16.47999638 34.87109375 19.82421875 C33.96032343 20.97889908 33.04497741 22.12998556 32.125 23.27734375 C30.2087555 26.21159314 30.50157586 28.63563704 31 32 C31.495 32.804375 31.99 33.60875 32.5 34.4375 C34.55916278 37.95523642 34.93197219 41.08719611 34 45 C31.63797469 48.86985908 29.33807509 51.55397497 25 53 C20.29733723 53.46255699 18.00815089 53.53372694 13.8125 51.3125 C10.07736375 47.79885431 8.94579479 42.86845906 7.2578125 38.16015625 C4.10784008 30.24609511 -1.03205582 27.04230723 -8.51171875 23.359375 C-12.18379302 21.35328105 -13.67014967 19.98955098 -15 16 C-15.78580372 9.26453953 -15.78580372 9.26453953 -13.73046875 5.95703125 C-9.42624647 0.87783951 -6.90192538 -0.66792826 0 0 Z " fill="#22EEA6" transform="translate(148,138)"/>
<path d="M0 0 C5.77441941 3.27279797 8.66496548 8.26743097 11.5625 14.0625 C12.2395676 21.4328644 12.74364308 28.26835887 8.125 34.3828125 C3.63865323 39.20563528 -0.80447975 43.58663841 -7.5390625 44.46875 C-16.01690717 44.69432458 -22.03508319 43.90206698 -28.4375 38.0625 C-33.14071804 32.90595974 -34.84026288 28.00724244 -35.1875 21.0625 C-34.84047482 14.1219965 -33.14433447 9.21266357 -28.4375 4.0625 C-20.24342463 -3.29002168 -10.04841094 -4.32157222 0 0 Z " fill="#F94958" transform="translate(167.4375,289.9375)"/>
<path d="M0 0 C3.2687043 1.73455556 5.4606634 4.32821569 7.765625 7.19921875 C9.91426916 9.30578153 9.91426916 9.30578153 13.0234375 9.06640625 C14.12945312 8.90011719 15.23546875 8.73382813 16.375 8.5625 C21.51837175 7.99742104 24.70569759 7.72276922 29 11 C32.37918919 14.77914153 32.56073973 17.59051116 32.4296875 22.51953125 C31.73257257 26.54378559 29.96066221 28.25081366 27 31 C24.54739535 32.22630233 22.29199047 32.26845863 19.59130859 32.49291992 C9.60198819 33.39537836 3.3028829 35.92588047 -3.3125 43.75 C-3.95638672 44.60851562 -3.95638672 44.60851562 -4.61328125 45.484375 C-7.24132729 48.35671828 -9.6079862 48.96436238 -13.4375 49.3125 C-18.30019235 48.88594804 -20.66613947 47.56383648 -23.8125 43.875 C-25.48133669 39.83465854 -25.82151927 36.30536952 -25 32 C-23.21693267 28.78764854 -20.67101764 26.52943768 -17.796875 24.26171875 C-15.66848919 22.05830273 -15.66848919 22.05830273 -15.96875 18.7578125 C-16.1440625 17.55898438 -16.319375 16.36015625 -16.5 15.125 C-17.30935252 7.33902878 -17.30935252 7.33902878 -15.25 4.25 C-10.49331785 -0.50668215 -6.47876479 -1.00062046 0 0 Z " fill="#22EEA6" transform="translate(216,384)"/>
<path d="M0 0 C4.08431702 2.88958483 6.11005169 5.49484566 8.25 10 C8.75015625 11.03125 9.2503125 12.0625 9.765625 13.125 C13.28931713 21.33208039 12.89426279 30.1986985 10.03515625 38.58984375 C6.02078795 47.93650504 -0.59567646 54.62829758 -9.4375 59.5 C-12.82553041 61.48242875 -12.92002834 61.69510806 -14 65.8125 C-14 66.864375 -14 67.91625 -14 69 C-17.7223401 70.24078003 -21.18796033 70.14555459 -25.0625 70.125 C-25.79533203 70.12886719 -26.52816406 70.13273437 -27.28320312 70.13671875 C-32.74663018 70.12668491 -32.74663018 70.12668491 -35 69 C-35.2475 67.453125 -35.2475 67.453125 -35.5 65.875 C-36.73803326 61.03181391 -40.36300679 59.28717489 -44.37890625 56.7109375 C-47.87982637 54.42568711 -50.8826847 51.77847668 -54 49 C-51.29216845 47.64608422 -48.89571905 48.02114735 -45.93139648 48.11669922 C-37.81099094 48.35316047 -31.19697861 48.17763135 -24 44 C-23.23558594 43.57589844 -22.47117187 43.15179688 -21.68359375 42.71484375 C-12.8137614 37.32690836 -5.05959345 29.05825862 -2 19 C-0.91179476 12.71377878 -0.43742973 6.35905313 0 0 Z " fill="#F52F3F" transform="translate(292,271)"/>
<path d="M0 0 C3.91025991 0.57929776 6.16056336 2.3061755 9 5 C12.49716941 10.06486604 12.90810349 15.04172916 12 21 C9.61482819 28.93584942 2.20001148 32.52350468 -4.48828125 36.49658203 C-7.54031334 38.32341073 -10.56776951 40.18908786 -13.59375 42.05859375 C-19.22003185 45.53363153 -24.85459644 48.99472353 -30.49487305 52.44702148 C-32.35115669 53.597769 -34.18277305 54.78851537 -36 56 C-37.32 56 -38.64 56 -40 56 C-41.62772798 53.83761684 -42.93663803 51.83973003 -44.25 49.5 C-44.61351562 48.87996094 -44.97703125 48.25992188 -45.3515625 47.62109375 C-46.24760591 46.08838792 -47.12555747 44.54513146 -48 43 C-45.01983802 40.69665296 -41.94485706 38.6591606 -38.74609375 36.671875 C-37.72580078 36.03636719 -36.70550781 35.40085938 -35.65429688 34.74609375 C-34.59275391 34.08738281 -33.53121094 33.42867187 -32.4375 32.75 C-28.28921946 30.17057073 -24.14362841 27.58689525 -20 25 C-18.96891113 24.35998047 -17.93782227 23.71996094 -16.87548828 23.06054688 C-15.89692871 22.44759766 -14.91836914 21.83464844 -13.91015625 21.203125 C-13.03625244 20.65817383 -12.16234863 20.11322266 -11.26196289 19.55175781 C-5.07854762 15.30979478 -2.00900306 9.31119491 -0.3125 2.0625 C-0.209375 1.381875 -0.10625 0.70125 0 0 Z " fill="#F87A68" transform="translate(438,27)"/>
<path d="M0 0 C4.64407004 4.26752382 7.58293017 8.00404839 8.46875 14.3671875 C8.53608289 21.92530479 8.27372224 27.3307486 3 33 C-2.48228188 38.45780741 -6.71061818 41.28941778 -14.625 41.5 C-21.77739933 41.38091739 -26.6656118 39.82010881 -32 35 C-34.00161581 32.46734325 -35.59895233 29.90533044 -37 27 C-34.2483143 25.62415715 -32.19091923 26.12501573 -29.125 26.3125 C-21.58938098 26.34584345 -16.11627372 24.38154112 -10 20 C-4.12636807 14.14690524 -1.14393624 8.19820975 0 0 Z " fill="#F52E3F" transform="translate(171,293)"/>
<path d="M0 0 C5.78780222 0.48000912 9.91674795 2.86179845 14.8125 5.75 C15.97555664 6.39582031 15.97555664 6.39582031 17.16210938 7.0546875 C22.53994274 10.19763823 22.53994274 10.19763823 24.3125 13.2890625 C23.8065145 17.67848672 21.51351921 20.9361035 19.1875 24.625 C18.72279297 25.388125 18.25808594 26.15125 17.77929688 26.9375 C15.90752884 29.99892836 13.9906126 33.01408111 12 36 C7.15224232 34.97679685 3.17809002 32.56337672 -1.125 30.1875 C-1.94871094 29.74857422 -2.77242188 29.30964844 -3.62109375 28.85742188 C-4.40871094 28.42365234 -5.19632812 27.98988281 -6.0078125 27.54296875 C-6.72598145 27.15133545 -7.44415039 26.75970215 -8.18408203 26.35620117 C-10.39281068 24.70663306 -11.25864504 23.66579391 -12 21 C-11.12548828 18.61816406 -11.12548828 18.61816406 -9.5703125 16.015625 C-8.74853516 14.61376953 -8.74853516 14.61376953 -7.91015625 13.18359375 C-7.32105469 12.21550781 -6.73195313 11.24742187 -6.125 10.25 C-5.54363281 9.26644531 -4.96226562 8.28289062 -4.36328125 7.26953125 C-2.92293736 4.83747518 -1.46826477 2.41526709 0 0 Z " fill="#A04D3F" transform="translate(276,173)"/>
<path d="M0 0 C5.24881176 0.48657624 9.0073114 3.26547398 13.3125 6.0625 C14.05306641 6.53494141 14.79363281 7.00738281 15.55664062 7.49414062 C17.37551219 8.65587149 19.1883659 9.82701482 21 11 C19.36047417 15.6393176 16.93128948 19.63855858 14.375 23.8125 C13.95476562 24.50537109 13.53453125 25.19824219 13.1015625 25.91210938 C12.0710533 27.61010748 11.03598319 29.30533614 10 31 C4.75118824 30.51342376 0.9926886 27.73452602 -3.3125 24.9375 C-4.05306641 24.46505859 -4.79363281 23.99261719 -5.55664062 23.50585938 C-7.37551219 22.34412851 -9.1883659 21.17298518 -11 20 C-9.36047417 15.3606824 -6.93128948 11.36144142 -4.375 7.1875 C-3.95476562 6.49462891 -3.53453125 5.80175781 -3.1015625 5.08789062 C-2.0710533 3.38989252 -1.03598319 1.69466386 0 0 Z " fill="#A04D3F" transform="translate(117,393)"/>
<path d="M0 0 C5.17935061 1.46828943 9.34373412 3.81491263 13.875 6.625 C14.56335938 7.04523438 15.25171875 7.46546875 15.9609375 7.8984375 C17.64391658 8.92692472 19.32242532 9.962721 21 11 C19.40897388 15.27537276 17.38460485 19.26128235 15.1875 23.25 C14.85685547 23.88679688 14.52621094 24.52359375 14.18554688 25.1796875 C12.70065745 27.85875862 11.49441133 29.72484175 8.7890625 31.23046875 C4.26834178 30.85690779 0.96516795 28.44689561 -2.8125 26.0625 C-3.60076172 25.58103516 -4.38902344 25.09957031 -5.20117188 24.60351562 C-7.14254008 23.41516296 -9.07455237 22.21391745 -11 21 C-9.53171057 15.82064939 -7.18508737 11.65626588 -4.375 7.125 C-3.95476562 6.43664062 -3.53453125 5.74828125 -3.1015625 5.0390625 C-2.07307528 3.35608342 -1.037279 1.67757468 0 0 Z " fill="#A04D3F" transform="translate(117,215)"/>
<path d="M0 0 C5.45347364 1.26824968 8.01285356 3.2557086 11 8 C11.63160511 11.97911219 12.01018942 14.3767301 9.8671875 17.8203125 C8.95915091 18.97741056 8.04510865 20.12982188 7.125 21.27734375 C5.2087555 24.21159314 5.50157586 26.63563704 6 30 C6.495 30.804375 6.99 31.60875 7.5 32.4375 C9.55916278 35.95523642 9.93197219 39.08719611 9 43 C6.63797469 46.86985908 4.33807509 49.55397497 0 51 C-7.27797834 51.57761733 -7.27797834 51.57761733 -10.5 49 C-10.995 48.34 -11.49 47.68 -12 47 C-10.88625 46.505 -10.88625 46.505 -9.75 46 C-5.96548587 43.24762609 -4.36026209 40.45376135 -3 36 C-2.31931936 30.72850657 -2.18406563 26.03075514 -4.8125 21.3125 C-5.4003125 19.6728125 -5.4003125 19.6728125 -6 18 C-4.98399026 15.85960615 -3.68929529 14.10510347 -2.28515625 12.19921875 C-0.06975955 8.40812957 -0.0971414 4.30954569 0 0 Z " fill="#26DB99" transform="translate(173,140)"/>
<path d="M0 0 C3.2687043 1.73455556 5.4606634 4.32821569 7.765625 7.19921875 C9.91426916 9.30578153 9.91426916 9.30578153 13.0234375 9.06640625 C14.12945312 8.90011719 15.23546875 8.73382813 16.375 8.5625 C21.51837175 7.99742104 24.70569759 7.72276922 29 11 C32.39506942 14.78870066 32.55430771 17.63960483 32.4375 22.58203125 C31.74645579 26.40128452 30.04494034 27.71629474 27 30 C26.70867187 29.46890625 26.41734375 28.9378125 26.1171875 28.390625 C23.08380668 23.1632895 20.14421628 19.41098584 14.17578125 17.37890625 C11.45363718 16.90485244 9.00311528 17.16815973 6.25 17.375 C1.48911368 17.43855552 -0.77510635 16.97623863 -4.25 13.6875 C-4.86359375 13.05070312 -5.4771875 12.41390625 -6.109375 11.7578125 C-9.06772522 9.00728027 -12.17364978 8.1615706 -16 7 C-12.06396364 -0.1223515 -7.79794487 -1.20436278 0 0 Z " fill="#26DD9A" transform="translate(216,384)"/>
<path d="M0 0 C4.21769142 0.59509893 6.76893469 1.14174992 10 4 C9.42282622 7.71286417 8.40601794 10.41741796 6.49609375 13.64453125 C6.00302734 14.48564453 5.50996094 15.32675781 5.00195312 16.19335938 C4.48568359 17.05767578 3.96941406 17.92199219 3.4375 18.8125 C2.91736328 19.69615234 2.39722656 20.57980469 1.86132812 21.49023438 C0.5805605 23.66401428 -0.7066834 25.83367087 -2 28 C-5.98467756 27.17707746 -8.67947232 25.33946269 -12 23 C-10.46688715 17.48431813 -7.81247556 12.97965148 -4.875 8.125 C-4.40707031 7.34125 -3.93914062 6.5575 -3.45703125 5.75 C-2.30981892 3.83017528 -1.1573993 1.91369439 0 0 Z " fill="#B65A4D" transform="translate(276,173)"/>
<path d="M0 0 C3.81583379 0.65179251 6.02881405 1.46898975 9 4 C7.36047417 8.6393176 4.93128948 12.63855858 2.375 16.8125 C1.95476562 17.50537109 1.53453125 18.19824219 1.1015625 18.91210938 C0.0710533 20.61010748 -0.96401681 22.30533614 -2 24 C-5.81583379 23.34820749 -8.02881405 22.53101025 -11 20 C-9.36047417 15.3606824 -6.93128948 11.36144142 -4.375 7.1875 C-3.95476562 6.49462891 -3.53453125 5.80175781 -3.1015625 5.08789062 C-2.0710533 3.38989252 -1.03598319 1.69466386 0 0 Z " fill="#B55A4C" transform="translate(117,393)"/>
<path d="M0 0 C5.75 1.75 5.75 1.75 8 4 C7.7928251 8.92715951 4.97447461 12.75256361 2.4375 16.8125 C2.01275391 17.50537109 1.58800781 18.19824219 1.15039062 18.91210938 C0.10690544 20.61216951 -0.94565296 22.30665476 -2 24 C-5.73487777 23.5020163 -7.81237635 23.12508244 -11 21 C-9.53171057 15.82064939 -7.18508737 11.65626588 -4.375 7.125 C-3.95476562 6.43664062 -3.53453125 5.74828125 -3.1015625 5.0390625 C-2.07307528 3.35608342 -1.037279 1.67757468 0 0 Z " fill="#B45A4C" transform="translate(117,215)"/>
<path d="M0 0 C2.875 1.5 2.875 1.5 5 4 C5.66017005 6.80141726 5.60984064 9.19243175 5 12 C3.4375 14.5 3.4375 14.5 1 16 C-3.39200889 16.71869236 -5.27833231 16.48111179 -9 14 C-11.04461358 10.93307963 -11.32393649 10.33106293 -11.0625 6.875 C-10.51926195 4.20910958 -10.09898036 3.11731005 -8.3125 1 C-5.2481637 -0.3251184 -3.3125739 -0.47322484 0 0 Z " fill="#000000" transform="translate(330,20)"/>
<path d="M0 0 C2.4375 1.5 2.4375 1.5 4 4 C4.80414661 8.04560357 4.63828902 10.97873756 2.4375 14.5 C-0.94888329 16.58392818 -3.09385318 16.55802097 -7 16 C-9.68601216 14.09151767 -10.7337462 12.67450962 -11.9375 9.625 C-12.0221688 6.06891031 -10.83947665 3.99766565 -9 1 C-5.90826248 -0.54586876 -3.40570448 -0.29359521 0 0 Z " fill="#000000" transform="translate(428,369)"/>
<path d="M0 0 C1.90625 0.4140625 1.90625 0.4140625 4.40625 1.9765625 C6.47476618 5.3379013 6.39130011 7.53366161 5.90625 11.4140625 C4.84375 13.7890625 4.84375 13.7890625 2.90625 15.4140625 C-1.06719161 16.51779628 -3.18374772 16.82949833 -6.96875 15.1015625 C-9.09375 13.4140625 -9.09375 13.4140625 -10.09375 11.4140625 C-10.49991229 7.75860185 -10.30809253 5.82488568 -8.59375 2.5390625 C-5.55206021 -0.04637382 -3.89367767 -0.27604431 0 0 Z " fill="#000000" transform="translate(442.09375,352.5859375)"/>
<path d="M0 0 C2.5625 2.0625 2.5625 2.0625 4 5 C3.94016186 8.47061229 3.67167343 10.88054428 1.875 13.875 C-1.11945572 15.67167343 -3.52938771 15.94016186 -7 16 C-9.9375 14.5625 -9.9375 14.5625 -12 12 C-12.93350908 7.99573739 -12.61452102 5.0242017 -10.5 1.5 C-6.9757983 -0.61452102 -4.00426261 -0.93350908 0 0 Z " fill="#000000" transform="translate(316,4)"/>
<path d="M0 0 C4.0743356 0.84881992 5.54405875 2.30225596 8 5.625 C8.625 8.625 8.625 8.625 8 11.625 C5.54405875 14.94774404 4.0743356 16.40118008 0 17.25 C-4.0743356 16.40118008 -5.54405875 14.94774404 -8 11.625 C-8.625 8.625 -8.625 8.625 -8 5.625 C-5.54405875 2.30225596 -4.0743356 0.84881992 0 0 Z " fill="#000000" transform="translate(296,19.375)"/>
<path d="M0 0 C2.64764845 1.67684402 2.95477045 2.85138861 3.875 5.875 C4.0235372 9.58842999 3.18476995 11.05896353 1 14 C0 15 0 15 -3.8125 15.3125 C-6.78617685 15.25377389 -7.87751147 15.07349312 -10.5 13.5 C-12.61452102 9.9757983 -12.93350908 7.00426261 -12 3 C-8.3655827 -1.51548816 -5.40521016 -1.50144727 0 0 Z " fill="#000000" transform="translate(316,37)"/>
<path d="M0 0 C1.90625 0.44921875 1.90625 0.44921875 4.40625 2.57421875 C6.16209708 5.93959231 6.54281938 7.70937366 5.90625 11.44921875 C3.99204729 14.07238542 2.54372948 15.19758211 -0.46875 16.38671875 C-4.02483969 16.47138755 -6.09608435 15.2886954 -9.09375 13.44921875 C-10.63961876 10.35748123 -10.38734521 7.85492323 -10.09375 4.44921875 C-7.53483537 0.29098247 -4.61835112 -0.24987347 0 0 Z " fill="#000000" transform="translate(411.09375,352.55078125)"/>
<path d="M0 0 C2.39216609 1.5947774 2.88287964 2.65764819 3.8125 5.375 C4.03578841 8.50103781 3.42252752 10.22981483 2 13 C0 15 0 15 -3.875 15.375 C-6.80850708 15.27899431 -7.91241536 15.05255079 -10.5 13.5 C-12.61452102 9.9757983 -12.93350908 7.00426261 -12 3 C-8.3655827 -1.51548816 -5.40521016 -1.50144727 0 0 Z " fill="#000000" transform="translate(429,337)"/>
</svg>
